<svg xmlns="http://www.w3.org/2000/svg" viewBox="0 0 200 240">
  <!-- Ornate Ganesha illustration - gold linework on transparent background -->
  <g fill="none" stroke="#C8963E" stroke-linecap="round" stroke-linejoin="round">

    <!-- Crown / Mukut - ornate layered crown -->
    <path d="M85,30 L85,20 L90,12 L95,8 L100,6 L105,8 L110,12 L115,20 L115,30" stroke-width="1.5"/>
    <!-- Crown jewels -->
    <circle cx="100" cy="10" r="3" fill="#C8963E" stroke="none"/>
    <circle cx="89" cy="16" r="2" fill="#C8963E" stroke="none"/>
    <circle cx="111" cy="16" r="2" fill="#C8963E" stroke="none"/>
    <!-- Crown decorative arch -->
    <path d="M83,28 Q100,18 117,28" stroke-width="1.2"/>
    <!-- Crown tier 2 -->
    <path d="M86,32 L87,26 L100,22 L113,26 L114,32" stroke-width="1.2"/>
    <!-- Crown decorative dots -->
    <circle cx="100" cy="24" r="1.5" fill="#C8963E" stroke="none"/>
    <circle cx="93" cy="27" r="1" fill="#C8963E" stroke="none"/>
    <circle cx="107" cy="27" r="1" fill="#C8963E" stroke="none"/>

    <!-- Halo / Prabhamandala -->
    <circle cx="100" cy="70" r="38" stroke-width="1" stroke-dasharray="3,2"/>
    <circle cx="100" cy="70" r="34" stroke-width="0.5"/>

    <!-- Large Ears - Ganesha's wide elephant ears -->
    <!-- Left ear -->
    <ellipse cx="62" cy="72" rx="22" ry="28" stroke-width="1.8"/>
    <path d="M68,50 Q48,55 44,72 Q42,85 58,90" stroke-width="1"/>
    <path d="M65,53 Q50,60 47,72 Q45,82 60,88" stroke-width="0.8"/>
    <!-- Ear vein detail -->
    <path d="M60,55 Q52,65 53,78" stroke-width="0.6"/>
    <path d="M64,56 Q57,68 58,80" stroke-width="0.6"/>
    <!-- Left ear inner -->
    <ellipse cx="63" cy="73" rx="14" ry="18" stroke-width="0.8"/>

    <!-- Right ear -->
    <ellipse cx="138" cy="72" rx="22" ry="28" stroke-width="1.8"/>
    <path d="M132,50 Q152,55 156,72 Q158,85 142,90" stroke-width="1"/>
    <path d="M135,53 Q150,60 153,72 Q155,82 140,88" stroke-width="0.8"/>
    <!-- Ear vein detail -->
    <path d="M140,55 Q148,65 147,78" stroke-width="0.6"/>
    <path d="M136,56 Q143,68 142,80" stroke-width="0.6"/>
    <!-- Right ear inner -->
    <ellipse cx="137" cy="73" rx="14" ry="18" stroke-width="0.8"/>

    <!-- Elephant Head -->
    <ellipse cx="100" cy="72" rx="30" ry="32" stroke-width="2"/>

    <!-- Forehead with tilak/bindi -->
    <!-- Third eye / tilak mark -->
    <ellipse cx="100" cy="58" rx="4" ry="2.5" fill="#C8963E" stroke="none"/>
    <line x1="100" y1="55" x2="100" y2="52" stroke="#C8963E" stroke-width="1.5"/>

    <!-- Eyes - large, expressive -->
    <ellipse cx="88" cy="68" rx="6" ry="5" stroke-width="1.5"/>
    <ellipse cx="88" cy="68" rx="3" ry="3.5" fill="#C8963E" stroke="none"/>
    <circle cx="87" cy="67" r="1" fill="white" stroke="none"/>
    <!-- Eye decoration -->
    <path d="M82,64 Q88,61 94,64" stroke-width="1"/>
    <path d="M82,72 Q88,75 94,72" stroke-width="0.8"/>

    <ellipse cx="112" cy="68" rx="6" ry="5" stroke-width="1.5"/>
    <ellipse cx="112" cy="68" rx="3" ry="3.5" fill="#C8963E" stroke="none"/>
    <circle cx="111" cy="67" r="1" fill="white" stroke="none"/>
    <path d="M106,64 Q112,61 118,64" stroke-width="1"/>
    <path d="M106,72 Q112,75 118,72" stroke-width="0.8"/>

    <!-- Trunk - curved gracefully to the right (auspicious) -->
    <path d="M95,82 Q88,90 84,98 Q80,108 86,115 Q92,120 98,116 Q104,112 102,106" stroke-width="2.5"/>
    <!-- Trunk tip curl -->
    <path d="M102,106 Q108,100 104,95 Q100,92 98,96" stroke-width="2"/>
    <!-- Trunk wrinkle lines -->
    <path d="M91,90 Q87,93 86,97" stroke-width="0.8"/>
    <path d="M89,97 Q85,100 85,104" stroke-width="0.8"/>
    <path d="M88,104 Q85,107 86,111" stroke-width="0.8"/>

    <!-- Modak (sweet) held by trunk tip -->
    <ellipse cx="100" cy="93" rx="7" ry="6" stroke-width="1.2"/>
    <path d="M94,93 Q100,88 106,93" stroke-width="0.8"/>

    <!-- Elephant tusks -->
    <!-- Left tusk (broken - symbolic) -->
    <path d="M86,85 Q78,88 74,96 Q72,102 75,106" stroke-width="1.5"/>
    <line x1="75" y1="106" x2="77" y2="110" stroke-width="1.5"/>
    <!-- Right tusk -->
    <path d="M114,85 Q122,88 126,96 Q128,102 125,108 Q122,114 118,116" stroke-width="1.5"/>

    <!-- Neck and shoulders -->
    <path d="M76,98 Q74,108 72,120 Q70,130 72,138" stroke-width="1.8"/>
    <path d="M124,98 Q126,108 128,120 Q130,130 128,138" stroke-width="1.8"/>
    <path d="M72,138 Q100,145 128,138" stroke-width="1.5"/>

    <!-- Necklace / Haar -->
    <path d="M76,102 Q100,112 124,102" stroke-width="1.2"/>
    <path d="M77,105 Q100,115 123,105" stroke-width="0.8"/>
    <!-- Necklace pendant -->
    <circle cx="100" cy="115" r="4" stroke-width="1.2"/>
    <circle cx="100" cy="115" r="2" fill="#C8963E" stroke="none"/>
    <!-- Necklace gems -->
    <circle cx="84" cy="105" r="2" fill="#C8963E" stroke="none"/>
    <circle cx="92" cy="108" r="2" fill="#C8963E" stroke="none"/>
    <circle cx="108" cy="108" r="2" fill="#C8963E" stroke="none"/>
    <circle cx="116" cy="105" r="2" fill="#C8963E" stroke="none"/>

    <!-- Sacred Thread / Yajnopavita -->
    <path d="M80,105 Q72,130 76,160 Q78,170 82,175" stroke-width="1"/>

    <!-- Pot Belly / Lambodara - large blessed belly -->
    <ellipse cx="100" cy="172" rx="35" ry="38" stroke-width="2"/>
    <!-- Belly button -->
    <circle cx="100" cy="170" r="3" stroke-width="1"/>
    <!-- Belly decorative band -->
    <path d="M68,165 Q100,170 132,165" stroke-width="0.8" stroke-dasharray="2,2"/>

    <!-- Cloth belt / Mekhala around waist -->
    <path d="M70,155 Q100,162 130,155" stroke-width="1.5"/>
    <path d="M71,158 Q100,165 129,158" stroke-width="1.2"/>
    <!-- Belt bow/knot -->
    <path d="M94,158 Q100,153 106,158 Q100,162 94,158" stroke-width="1"/>

    <!-- Four Arms -->
    <!-- Upper Left arm - holding axe (Parashu) -->
    <path d="M72,120 Q58,118 48,112 Q42,108 40,102" stroke-width="2"/>
    <path d="M40,102 Q36,96 38,90 Q40,86 44,88" stroke-width="1.8"/>
    <!-- Axe blade -->
    <path d="M38,90 Q30,86 28,78 Q30,72 36,74 Q40,76 40,84" stroke-width="1.2" fill="#C8963E" fill-opacity="0.3"/>

    <!-- Upper Right arm - holding rope (Pasha) -->
    <path d="M128,120 Q142,118 152,112 Q158,108 160,102" stroke-width="2"/>
    <path d="M160,102 Q164,96 162,90 Q160,86 156,88" stroke-width="1.8"/>
    <!-- Rope/noose -->
    <path d="M156,88 Q168,84 172,76 Q170,68 164,70 Q160,72 162,80" stroke-width="1.2"/>
    <ellipse cx="166" cy="74" rx="5" ry="4" stroke-width="1"/>

    <!-- Lower Left arm - blessing gesture (Abhaya mudra) -->
    <path d="M72,138 Q62,148 58,162 Q56,172 60,180" stroke-width="2"/>
    <!-- Hand with blessings -->
    <path d="M60,180 Q56,188 60,194 Q65,198 70,194 Q74,188 72,180" stroke-width="1.5"/>
    <line x1="62" y1="182" x2="60" y2="190" stroke-width="1"/>
    <line x1="66" y1="181" x2="65" y2="190" stroke-width="1"/>
    <line x1="70" y1="182" x2="70" y2="190" stroke-width="1"/>
    <line x1="73" y1="183" x2="74" y2="190" stroke-width="1"/>

    <!-- Lower Right arm - holding modak (sweet) -->
    <path d="M128,138 Q138,148 142,162 Q144,172 140,180" stroke-width="2"/>
    <!-- Modak in hand -->
    <ellipse cx="140" cy="188" rx="8" ry="9" stroke-width="1.5"/>
    <path d="M133,188 Q140,182 147,188" stroke-width="1"/>
    <!-- Modak tip -->
    <path d="M140,179 Q143,176 140,179" stroke-width="1.2"/>

    <!-- Arm bangles/Keyura -->
    <ellipse cx="54" cy="108" rx="5" ry="3" stroke-width="1"/>
    <ellipse cx="158" cy="108" rx="5" ry="3" stroke-width="1"/>
    <ellipse cx="60" cy="174" rx="5" ry="3" stroke-width="1"/>
    <ellipse cx="140" cy="174" rx="5" ry="3" stroke-width="1"/>

    <!-- Seated posture - legs in lotus/Padmasana -->
    <!-- Left leg -->
    <path d="M72,200 Q65,210 62,220 Q64,228 72,230 Q88,232 100,230" stroke-width="1.8"/>
    <!-- Right leg -->
    <path d="M128,200 Q135,210 138,220 Q136,228 128,230 Q112,232 100,230" stroke-width="1.8"/>
    <!-- Feet detail -->
    <path d="M62,220 Q58,225 62,230 Q68,234 76,232" stroke-width="1.2"/>
    <path d="M138,220 Q142,225 138,230 Q132,234 124,232" stroke-width="1.2"/>
    <!-- Toe details -->
    <path d="M63,227 Q65,230 68,228" stroke-width="0.8"/>
    <path d="M137,227 Q135,230 132,228" stroke-width="0.8"/>

    <!-- Dhoti / Lower garment folds -->
    <path d="M70,200 Q100,210 130,200" stroke-width="1.2"/>
    <path d="M72,205 Q100,215 128,205" stroke-width="0.8"/>
    <path d="M74,195 Q100,204 126,195" stroke-width="0.8"/>

    <!-- Lotus seat (Padmasana base) -->
    <!-- Lotus petals under Ganesha -->
    <path d="M60,230 Q70,220 80,228 Q70,235 60,230" stroke-width="1" fill="#C8963E" fill-opacity="0.2"/>
    <path d="M80,228 Q90,218 100,225 Q90,232 80,228" stroke-width="1" fill="#C8963E" fill-opacity="0.2"/>
    <path d="M100,225 Q110,218 120,228 Q110,232 100,225" stroke-width="1" fill="#C8963E" fill-opacity="0.2"/>
    <path d="M120,228 Q130,220 140,230 Q130,235 120,228" stroke-width="1" fill="#C8963E" fill-opacity="0.2"/>
    <!-- Lotus center -->
    <ellipse cx="100" cy="232" rx="40" ry="8" stroke-width="1.2"/>
    <!-- More lotus petals below -->
    <path d="M65,232 Q75,240 85,235 Q75,238 65,232" stroke-width="0.8" fill="#C8963E" fill-opacity="0.15"/>
    <path d="M85,235 Q95,242 105,238 Q95,240 85,235" stroke-width="0.8" fill="#C8963E" fill-opacity="0.15"/>
    <path d="M105,238 Q115,242 125,235 Q115,240 105,238" stroke-width="0.8" fill="#C8963E" fill-opacity="0.15"/>
    <path d="M125,235 Q135,238 142,232 Q132,238 125,235" stroke-width="0.8" fill="#C8963E" fill-opacity="0.15"/>

    <!-- Mouse / Mushika (vahana) - small mouse at feet -->
    <ellipse cx="115" cy="235" rx="6" ry="4" stroke-width="0.8"/>
    <circle cx="120" cy="233" r="2.5" stroke-width="0.8"/>
    <!-- Mouse ear -->
    <circle cx="121" cy="231" r="1.5" stroke-width="0.7"/>
    <!-- Mouse tail -->
    <path d="M109,236 Q104,240 100,238" stroke-width="0.7"/>

    <!-- Decorative Om symbol on belly -->
    <path d="M95,165 Q91,162 90,165 Q89,169 93,171 Q98,173 100,169 Q102,165 100,163 Q98,161 96,163" stroke-width="1"/>
    <path d="M100,163 Q106,160 106,165 Q106,170 100,172" stroke-width="1"/>
    <path d="M99,172 Q99,175 102,173" stroke-width="1"/>

    <!-- Border decorative frame - corner lotuses -->
    <g opacity="0.4" stroke-width="0.8">
      <circle cx="10" cy="10" r="5"/>
      <circle cx="190" cy="10" r="5"/>
      <circle cx="10" cy="230" r="5"/>
      <circle cx="190" cy="230" r="5"/>
      <!-- Connecting thin lines -->
      <line x1="15" y1="10" x2="185" y2="10"/>
      <line x1="15" y1="230" x2="185" y2="230"/>
      <line x1="10" y1="15" x2="10" y2="225"/>
      <line x1="190" y1="15" x2="190" y2="225"/>
    </g>
  </g>
</svg>
