<svg xmlns="http://www.w3.org/2000/svg" viewBox="0 0 80 200">
  <!-- Colorful peacock feather — teal/blue palette -->

  <!-- Main quill -->
  <path d="M40,195 Q39,160 38,130 Q37,100 40,70 Q41,50 40,25"
        stroke="#9B7B2A" stroke-width="2" fill="none" stroke-linecap="round"/>

  <!-- Left barbs — teal -->
  <g stroke="#2A9D8F" stroke-linecap="round" fill="none">
    <path d="M39,175 Q34,172 30,168" stroke-width="0.9"/>
    <path d="M39,165 Q32,162 27,157" stroke-width="0.9"/>
    <path d="M39,155 Q31,151 26,145" stroke-width="0.9"/>
    <path d="M39,145 Q30,140 25,133" stroke-width="0.9"/>
    <path d="M39,135 Q30,129 26,121" stroke-width="0.9"/>
    <path d="M39,125 Q30,118 28,110" stroke-width="0.9"/>
    <path d="M39,115 Q31,108 30,100" stroke-width="0.9"/>
    <path d="M39,105 Q32,98 32,90" stroke-width="0.9"/>
    <path d="M39,95 Q33,88 34,80" stroke-width="0.9"/>
    <path d="M39,85 Q35,78 36,70" stroke-width="0.9"/>
    <path d="M39,75 Q36,68 37,60" stroke-width="0.9"/>
    <path d="M39,65 Q37,58 38,50" stroke-width="0.9"/>
    <path d="M39,55 Q38,48 38,42" stroke-width="0.9"/>
  </g>

  <!-- Right barbs — teal -->
  <g stroke="#2A9D8F" stroke-linecap="round" fill="none">
    <path d="M41,175 Q46,172 50,168" stroke-width="0.9"/>
    <path d="M41,165 Q48,162 53,157" stroke-width="0.9"/>
    <path d="M41,155 Q49,151 54,145" stroke-width="0.9"/>
    <path d="M41,145 Q50,140 55,133" stroke-width="0.9"/>
    <path d="M41,135 Q50,129 54,121" stroke-width="0.9"/>
    <path d="M41,125 Q50,118 52,110" stroke-width="0.9"/>
    <path d="M41,115 Q49,108 50,100" stroke-width="0.9"/>
    <path d="M41,105 Q48,98 48,90" stroke-width="0.9"/>
    <path d="M41,95 Q47,88 46,80" stroke-width="0.9"/>
    <path d="M41,85 Q45,78 44,70" stroke-width="0.9"/>
    <path d="M41,75 Q44,68 43,60" stroke-width="0.9"/>
    <path d="M41,65 Q43,58 42,50" stroke-width="0.9"/>
    <path d="M41,55 Q42,48 42,42" stroke-width="0.9"/>
  </g>

  <!-- Feather outline — darker teal -->
  <g stroke="#1A7A6E" fill="none" stroke-linecap="round">
    <path d="M38,42 Q28,50 22,65 Q18,78 20,92 Q22,108 28,120 Q32,130 36,138 Q38,145 38,150" stroke-width="1.1"/>
    <path d="M42,42 Q52,50 58,65 Q62,78 60,92 Q58,108 52,120 Q48,130 44,138 Q42,145 42,150" stroke-width="1.1"/>
    <path d="M38,42 Q40,35 42,42" stroke-width="1.3"/>
  </g>

  <!-- Eye / ocellus -->
  <ellipse cx="40" cy="70" rx="15" ry="18" stroke="#2A9D8F" stroke-width="1.5" fill="none"/>
  <ellipse cx="40" cy="70" rx="10" ry="12" stroke="#1B6B8A" stroke-width="1" fill="none"/>
  <ellipse cx="40" cy="70" rx="6" ry="7.5" fill="#2A9D8F" fill-opacity="0.25" stroke="#2A9D8F" stroke-width="0.8"/>
  <ellipse cx="40" cy="70" rx="4" ry="5" fill="#264653" stroke="none"/>
  <ellipse cx="40" cy="70" rx="2" ry="2.5" fill="#6AB4D0" stroke="none"/>

  <!-- Rays around eye -->
  <g stroke="#2A9D8F" stroke-width="0.8">
    <line x1="40" y1="50" x2="40" y2="45"/>
    <line x1="40" y1="90" x2="40" y2="95"/>
    <line x1="24" y1="70" x2="20" y2="70"/>
    <line x1="56" y1="70" x2="60" y2="70"/>
    <line x1="29" y1="57" x2="26" y2="54"/>
    <line x1="51" y1="57" x2="54" y2="54"/>
    <line x1="29" y1="83" x2="26" y2="86"/>
    <line x1="51" y1="83" x2="54" y2="86"/>
  </g>

  <!-- Quill base -->
  <path d="M38,190 Q37,192 38,195 Q40,197 42,195 Q43,192 42,190"
        stroke="#9B7B2A" stroke-width="1.2" fill="none"/>
  <line x1="40" y1="185" x2="40" y2="195" stroke="#9B7B2A" stroke-width="2.5"/>
</svg>
